<mxfile host="app.diagrams.net" modified="2023-01-29T06:58:27.695Z" agent="5.0 (Windows NT 10.0; Win64; x64) AppleWebKit/537.36 (KHTML, like Gecko) Chrome/109.0.0.0 Safari/537.36" etag="4ASu_lHdbOzTtpia4Mwv" version="20.8.13" type="github">
  <diagram name="第 1 页" id="oIQrP-luDcQR4V3IKf5a">
    <mxGraphModel dx="1434" dy="764" grid="1" gridSize="10" guides="1" tooltips="1" connect="1" arrows="1" fold="1" page="1" pageScale="1" pageWidth="827" pageHeight="1169" math="0" shadow="0">
      <root>
        <mxCell id="0" />
        <mxCell id="1" parent="0" />
        <mxCell id="MXrIJVebHRg6DxDR6haG-1" value="" style="rounded=0;html=1;jettySize=auto;orthogonalLoop=1;fontSize=11;endArrow=block;endFill=0;endSize=8;strokeWidth=1;shadow=0;labelBackgroundColor=none;edgeStyle=orthogonalEdgeStyle;entryX=0.5;entryY=0;entryDx=0;entryDy=0;" edge="1" parent="1" source="MXrIJVebHRg6DxDR6haG-2" target="MXrIJVebHRg6DxDR6haG-4">
          <mxGeometry relative="1" as="geometry">
            <mxPoint x="380" y="170" as="targetPoint" />
          </mxGeometry>
        </mxCell>
        <mxCell id="MXrIJVebHRg6DxDR6haG-2" value="先保证license和 keyring ok 的情况下继续" style="rounded=1;whiteSpace=wrap;html=1;fontSize=12;glass=0;strokeWidth=1;shadow=0;" vertex="1" parent="1">
          <mxGeometry x="320" y="80" width="120" height="40" as="geometry" />
        </mxCell>
        <mxCell id="MXrIJVebHRg6DxDR6haG-3" value="" style="edgeStyle=orthogonalEdgeStyle;rounded=0;orthogonalLoop=1;jettySize=auto;html=1;" edge="1" parent="1" source="MXrIJVebHRg6DxDR6haG-4" target="MXrIJVebHRg6DxDR6haG-6">
          <mxGeometry relative="1" as="geometry" />
        </mxCell>
        <mxCell id="MXrIJVebHRg6DxDR6haG-4" value="根据传递条件筛选到不同队列中去，没有osd的放到creates里面，有osd的放到ups里面" style="whiteSpace=wrap;html=1;rounded=1;glass=0;strokeWidth=1;shadow=0;" vertex="1" parent="1">
          <mxGeometry x="315" y="190" width="130" height="70" as="geometry" />
        </mxCell>
        <mxCell id="MXrIJVebHRg6DxDR6haG-5" value="" style="edgeStyle=orthogonalEdgeStyle;rounded=0;orthogonalLoop=1;jettySize=auto;html=1;" edge="1" parent="1" source="MXrIJVebHRg6DxDR6haG-6" target="MXrIJVebHRg6DxDR6haG-8">
          <mxGeometry relative="1" as="geometry" />
        </mxCell>
        <mxCell id="MXrIJVebHRg6DxDR6haG-6" value="调用clear_disk函数，先去清理集群相关的信息，并且把踢走的osd放到全局变量self.osds中，再去清理磁盘级别的信息，并且记录清理磁盘的uuid 到self.cache_uuids中" style="whiteSpace=wrap;html=1;rounded=1;glass=0;strokeWidth=1;shadow=0;" vertex="1" parent="1">
          <mxGeometry x="305" y="320" width="150" height="100" as="geometry" />
        </mxCell>
        <mxCell id="MXrIJVebHRg6DxDR6haG-7" value="" style="edgeStyle=orthogonalEdgeStyle;rounded=0;orthogonalLoop=1;jettySize=auto;html=1;" edge="1" parent="1" source="MXrIJVebHRg6DxDR6haG-8" target="MXrIJVebHRg6DxDR6haG-9">
          <mxGeometry relative="1" as="geometry" />
        </mxCell>
        <mxCell id="MXrIJVebHRg6DxDR6haG-8" value="判断容量，在license 允许的情况下继续进行" style="whiteSpace=wrap;html=1;rounded=1;glass=0;strokeWidth=1;shadow=0;" vertex="1" parent="1">
          <mxGeometry x="320" y="470" width="120" height="60" as="geometry" />
        </mxCell>
        <mxCell id="MXrIJVebHRg6DxDR6haG-9" value="先创建osd，在把服务拉起" style="whiteSpace=wrap;html=1;rounded=1;glass=0;strokeWidth=1;shadow=0;" vertex="1" parent="1">
          <mxGeometry x="320" y="610" width="120" height="60" as="geometry" />
        </mxCell>
      </root>
    </mxGraphModel>
  </diagram>
</mxfile>
